<svg xmlns="http://www.w3.org/2000/svg" xmlns:xlink="http://www.w3.org/1999/xlink" width="70" height="70" viewBox="0 0 70 70">
  <defs>
    <clipPath id="clip-path">
      <rect id="Rectangle_8447" data-name="Rectangle 8447" width="70" height="70" transform="translate(195 1616)" fill="#e7eaf2"/>
    </clipPath>
  </defs>
  <g id="obesity" transform="translate(-195 -1616)" clip-path="url(#clip-path)">
    <g id="obesity-2" data-name="obesity" transform="translate(198 1608.463)">
      <path id="Path_20684" data-name="Path 20684" d="M28.1,226.753c-4.169,6.33-6.067,14.228-3.385,21.126a6.965,6.965,0,0,1-6.54-7.96,28.963,28.963,0,0,1,7.269-19.208.539.539,0,0,1,.085.073l3.992,3.993C29.013,225.418,28.54,226.074,28.1,226.753Z" transform="translate(-18.129 -187.548)" fill="#fcc4ae"/>
      <path id="Path_20685" data-name="Path 20685" d="M43.052,226.752c-4.174,6.334-6.067,14.233-3.385,21.126a6.538,6.538,0,0,1-2.658-.631c-2.33-6.747-.437-14.354,3.616-20.495a2.961,2.961,0,0,0-.336-3.733l-.987-.987c.352-.449.716-.886,1.092-1.323a.538.538,0,0,1,.085.073l3.992,3.993c-.51.643-.983,1.3-1.42,1.978Z" transform="translate(-33.078 -187.547)" fill="#fcc4ae"/>
      <path id="Path_20686" data-name="Path 20686" d="M103.9,199.274h-.012a16.787,16.787,0,0,1-2.255,4.041c-1.656-.74-7.354-3.458-8.938-4.041H63.255c-1.507.544-7.376,3.345-8.938,4.041a17.856,17.856,0,0,1-2.231-4.041h-.036c-2.995-7.661-.21-16.7,4.751-23.1l-3.947-3.992a.536.536,0,0,0-.084-.073A28.608,28.608,0,0,1,70.4,162.617h15.14a28.606,28.606,0,0,1,17.623,9.489.536.536,0,0,0-.084.073l-3.946,3.992C104.327,183.166,106.637,190.978,103.9,199.274Z" transform="translate(-45.475 -138.923)" fill="#3e8cc7"/>
      <path id="Path_20687" data-name="Path 20687" d="M119.742,376.712c-8.714,12.5-38.523,12.5-47.237,0l6.8-3.143a40.023,40.023,0,0,1,33.631,0Z" transform="translate(-63.623 -312.523)" fill="#fcc4ae"/>
      <path id="Path_20688" data-name="Path 20688" d="M117.826,404.442c-11.03,9.634-37.2,8.712-45.321-2.791l4.332-1.978C84.554,409.4,105.7,410.994,117.826,404.442Z" transform="translate(-63.623 -337.461)" fill="#fcc4ae"/>
      <path id="Path_20689" data-name="Path 20689" d="M119.742,411.782l-2.4,13.348H74.9l-2.4-13.348c4.467,5.934,12.779,9.149,22.421,9.38.784.036,1.611.036,2.4,0C106.962,420.932,115.274,417.716,119.742,411.782Z" transform="translate(-63.623 -347.592)" fill="#666"/>
      <path id="Path_20690" data-name="Path 20690" d="M119.744,411.782l-.563,3.119c-4.563,5.5-12.6,8.47-21.858,8.688-.779.036-1.617.036-2.4,0-9.258-.218-17.295-3.191-21.857-8.688l-.563-3.119c4.467,5.934,12.779,9.149,22.421,9.38.779.037,1.617.037,2.4,0C106.965,420.932,115.277,417.716,119.744,411.782Z" transform="translate(-63.626 -347.592)" fill="#575757"/>
      <path id="Path_20691" data-name="Path 20691" d="M212.784,407.69a1.213,1.213,0,0,1-1.213-1.213v-.91a1.213,1.213,0,0,1,2.427,0v.91a1.214,1.214,0,0,1-1.213,1.213Z" transform="translate(-180.285 -341.301)" fill="#e49949"/>
      <path id="Path_20692" data-name="Path 20692" d="M214,469.207v3.968h-2.427v-3.968C212.369,469.243,213.206,469.243,214,469.207Z" transform="translate(-180.287 -395.638)" fill="#595959"/>
      <path id="Path_20693" data-name="Path 20693" d="M214,469.207v2.427c-.789.036-1.638.036-2.427,0v-2.427C212.362,469.244,213.212,469.244,214,469.207Z" transform="translate(-180.287 -395.638)" fill="#4a4a4a"/>
      <path id="Path_20694" data-name="Path 20694" d="M348.552,356.515c-1.587-.07-1.137-1.767-1.121-2.878a1.214,1.214,0,0,1,2.427.03C349.8,354.769,350.024,356.461,348.552,356.515Z" transform="translate(-294.205 -297.832)" fill="#4398d1"/>
      <path id="Path_20695" data-name="Path 20695" d="M327.168,273.907a1.213,1.213,0,0,1-1.2-1.034c-.608-4.073-1.973-7.847-3.652-10.1a1.215,1.215,0,0,1,.247-1.7c2.658-1.8,5.43,8.409,5.805,11.436a1.217,1.217,0,0,1-1.2,1.393Z" transform="translate(-273.052 -221.131)" fill="#4398d1"/>
      <path id="Path_20696" data-name="Path 20696" d="M361.405,239.919a6.965,6.965,0,0,1-6.54,7.96c2.985-7.634.281-16.6-4.817-23.1l3.992-3.992a.536.536,0,0,1,.085-.073A28.866,28.866,0,0,1,361.405,239.919Z" transform="translate(-296.454 -187.549)" fill="#fcc4ae"/>
      <path id="Path_20697" data-name="Path 20697" d="M357.51,247.261a6.52,6.52,0,0,1-2.645.619c2.985-7.632.279-16.6-4.817-23.1l3.992-3.992a.536.536,0,0,1,.085-.073c.376.437.74.874,1.092,1.323a4.684,4.684,0,0,0-.665,5.751C358.129,233.693,359.737,240.9,357.51,247.261Z" transform="translate(-296.454 -187.549)" fill="#fcc4ae"/>
      <path id="Path_20698" data-name="Path 20698" d="M85.984,162.617H70.671a29.329,29.329,0,0,0-17.836,9.489.541.541,0,0,1,.085.073l3.991,3.992c-6.152,7.857-8.639,18.922-2.512,27.144l4.332-1.978c-4.993-7.362-3.295-16.94,1.56-24.327a3.1,3.1,0,0,0-.437-3.966,3.127,3.127,0,0,1,.433-4.729,9.507,9.507,0,0,1,11.758-.4c5.439,3.8,13.8,1.911,16.342-4.87-.789-.17-1.59-.316-2.4-.425Z" transform="translate(-45.518 -138.923)" fill="#347cb3"/>
      <path id="Path_20699" data-name="Path 20699" d="M167,116.346a8.507,8.507,0,0,0,8.494,8.494c6.493.163,10.7-7.49,7.293-12.826l-10.239-.307Z" transform="translate(-142.994 -96.079)" fill="#fcc4ae"/>
      <path id="Path_20700" data-name="Path 20700" d="M182.486,134.413a8.159,8.159,0,0,1-6.989,3.749A8.511,8.511,0,0,1,167,129.668l2.451-2.038a8.49,8.49,0,0,0,8.47,8.106,7.877,7.877,0,0,0,4.562-1.323Z" transform="translate(-142.987 -109.482)" fill="#fcc4ae"/>
      <path id="Path_20701" data-name="Path 20701" d="M164.559,62.232a9.194,9.194,0,0,0-7.9,10.392c.283,4.062,4.594,1.794,5.677.162a2.422,2.422,0,0,1,2.085-.883,21.463,21.463,0,0,0,9.175-1.075,2.424,2.424,0,0,0,1.027-3.764C172.777,64.785,169.349,61.7,164.559,62.232Z" transform="translate(-134.258 -54.634)" fill="#121319"/>
      <path id="Path_20702" data-name="Path 20702" d="M162.112,80.646c-1.323,1.59-5.194,3.41-5.472-.437a9.359,9.359,0,0,1,4.029-8.967,10.266,10.266,0,0,0-1.59,6.989C159.248,80.6,160.644,81.022,162.112,80.646Z" transform="translate(-134.183 -62.223)" fill="#121319"/>
    </g>
  </g>
</svg>
